<svg xmlns="http://www.w3.org/2000/svg" fill="none" viewBox="0 0 33.625 41.375" style="max-height: 500px" width="33.625" height="41.375">
<path fill="white" d="M50.7402 18.6408H53.0601V5.75004H50.7402V0.625H61.4592C65.6711 0.625 68.8876 1.59571 71.1252 3.54537C73.3628 5.49502 74.4734 8.36603 74.4734 12.1831C74.4734 16.0001 73.3628 18.756 71.1417 20.7632C68.9206 22.7704 65.6794 23.7741 61.4345 23.7741H50.7402V18.649V18.6408ZM61.4345 18.6408C63.0634 18.6408 64.248 18.032 64.9966 16.8063C65.7369 15.5888 66.1154 14.0422 66.1154 12.1748C66.1154 10.3075 65.7452 8.71977 65.013 7.52694C64.2809 6.33411 63.088 5.74181 61.4428 5.74181H60.5214V18.6408H61.4428H61.4345Z"/>
<path fill="white" d="M76.9824 18.6408H79.3023V5.75004H76.9824V0.625H87.7014C91.9133 0.625 95.1298 1.59571 97.3674 3.54537C99.605 5.49502 100.716 8.36603 100.716 12.1831C100.716 16.0001 99.605 18.756 97.3839 20.7632C95.1627 22.7704 91.9215 23.7741 87.6767 23.7741H76.9824V18.649V18.6408ZM87.6767 18.6408C89.3056 18.6408 90.4902 18.032 91.2388 16.8063C91.9791 15.5888 92.3575 14.0422 92.3575 12.1748C92.3575 10.3075 91.9874 8.71977 91.2552 7.52694C90.5231 6.33411 89.3302 5.74181 87.6849 5.74181H86.7636V18.6408H87.6849H87.6767Z"/>
<path fill="white" d="M107.601 23.7658V18.5256H109.987V5.75004H107.93L107.305 9.73984H103.225V0.625H125V9.73984H120.92L120.294 5.75004H118.18V18.5256H120.566V23.7658H107.609H107.601Z"/>
<path fill="white" d="M50.2215 40.7862H50.5177C50.8714 40.7862 51.1593 40.6793 51.365 40.4654C51.5707 40.2515 51.6776 39.8484 51.6776 39.2644V29.4256C51.6776 28.8086 51.4473 28.5043 50.9948 28.5043C50.8879 28.5043 50.7727 28.5207 50.6575 28.5618C50.5424 28.5947 50.419 28.6359 50.2956 28.677L50.2215 28.7099V28.0847C50.6658 27.9119 51.1018 27.7227 51.5378 27.5171C51.9738 27.3114 52.4427 27.0564 52.9445 26.7603H53.1254C53.1172 26.9577 53.1008 27.369 53.0925 28.0024C53.0843 28.6359 53.0761 29.3845 53.0761 30.2565V34.3203L53.2571 34.1722C53.7836 33.7691 54.2442 33.4648 54.6309 33.2509C55.0175 33.0452 55.4288 32.9383 55.8731 32.9383C56.3749 32.9383 56.7862 33.0288 57.1152 33.2015C57.4361 33.3825 57.724 33.6375 57.9708 33.983C58.2011 34.2874 58.3574 34.6247 58.4232 34.9949C58.489 35.3651 58.522 35.8669 58.522 36.5003V39.4289C58.522 40.0047 58.5878 40.3749 58.7112 40.5312C58.8428 40.6875 59.1225 40.778 59.5503 40.7862H59.8629V41.3374H59.5832C59.1636 41.3127 58.8017 41.2963 58.4973 41.2881C58.1929 41.2881 57.905 41.2798 57.65 41.2798C57.4443 41.2798 57.2057 41.2798 56.9425 41.2881C56.6792 41.2881 56.3749 41.3127 56.0294 41.3374H55.8072V40.7862H56.1363C56.5312 40.7616 56.7862 40.6546 56.9178 40.4572C57.0494 40.2598 57.107 39.8402 57.107 39.1903V36.3605C57.107 35.982 57.0906 35.6694 57.0577 35.4226C57.0248 35.1759 56.9425 34.9537 56.8109 34.7399C56.6792 34.5095 56.4818 34.3203 56.235 34.1805C55.9882 34.0406 55.6839 33.9666 55.3466 33.9666C55.0093 33.9666 54.672 34.0488 54.3512 34.2134C54.0303 34.3779 53.6519 34.6082 53.2077 34.9044L53.0596 35.0113V39.6099C53.0596 40.087 53.1254 40.3996 53.2571 40.5477C53.3887 40.6958 53.6519 40.778 54.055 40.7862H54.31V41.3374H54.162C53.8329 41.321 53.5039 41.3127 53.183 41.3045C52.8622 41.2881 52.5578 41.2881 52.2617 41.2881C52.0149 41.2881 51.3815 41.3045 50.3696 41.3456H50.2051V40.7945L50.2215 40.7862Z"/>
<path fill="white" d="M61.3926 35.5786C61.5735 35.085 61.845 34.6408 62.1987 34.2377C62.5525 33.8346 62.9885 33.5138 63.5067 33.2834C64.025 33.0531 64.6009 32.9297 65.2343 32.9297C65.8677 32.9297 66.4765 33.0449 67.0112 33.2834C67.5459 33.5138 67.9984 33.8346 68.3685 34.2459C68.7387 34.6572 69.0267 35.1344 69.2241 35.6773C69.4215 36.2202 69.5202 36.8043 69.5202 37.4131C69.5202 37.956 69.4215 38.466 69.2159 38.9596C69.0102 39.4532 68.7223 39.881 68.3439 40.2594C67.9654 40.6378 67.513 40.9257 66.9947 41.1396C66.4765 41.3535 65.9088 41.4605 65.3083 41.4605C64.7901 41.4605 64.2882 41.3617 63.7782 41.1643C63.2682 40.9669 62.824 40.6789 62.4209 40.2923C62.0178 39.9057 61.6969 39.4368 61.4666 38.8856C61.2363 38.3344 61.1211 37.7257 61.1211 37.0676C61.1211 36.5658 61.2116 36.0722 61.4008 35.5786H61.3926ZM67.7845 36.2038C67.6528 35.702 67.4636 35.2495 67.2086 34.8547C66.9536 34.4598 66.6328 34.139 66.2461 33.9086C65.8595 33.6783 65.4235 33.5631 64.9299 33.5631C64.3129 33.5631 63.7864 33.8428 63.3422 34.4104C62.898 34.9781 62.6677 35.7431 62.6677 36.7303C62.6677 37.1992 62.7252 37.6681 62.8486 38.1534C62.972 38.6388 63.153 39.083 63.3998 39.4861C63.6466 39.8892 63.951 40.2183 64.3212 40.4733C64.6913 40.7283 65.1109 40.8517 65.588 40.8517C66.4189 40.8517 67.0276 40.572 67.4061 40.0126C67.7845 39.4532 67.9737 38.7128 67.9737 37.775C67.9737 37.2321 67.9079 36.7138 67.7845 36.212V36.2038Z"/>
<path fill="white" d="M70.6641 28.0764C71.1083 27.9036 71.5443 27.7144 71.9803 27.5088C72.4163 27.3031 72.8852 27.0481 73.387 26.752H73.568C73.5598 26.9494 73.5433 27.3607 73.5351 27.9941C73.5268 28.6276 73.5186 29.3762 73.5186 30.2482V39.2643C73.5186 39.8648 73.6091 40.2679 73.7819 40.4818C73.9628 40.6875 74.2343 40.7944 74.6045 40.7944H74.9747V41.3456L74.2754 41.3291C73.5844 41.3044 73.1073 41.2962 72.8194 41.2962C72.5314 41.2962 72.0625 41.3044 71.3633 41.3291L70.6641 41.3456V40.7944H71.0342C71.4044 40.7944 71.6759 40.6875 71.8569 40.4818C72.0379 40.2761 72.1201 39.8648 72.1201 39.2643V29.4255C72.1201 28.8086 71.8898 28.5042 71.4373 28.5042C71.3304 28.5042 71.2152 28.5206 71.1001 28.5618C70.9849 28.5947 70.8615 28.6358 70.7381 28.6769L70.6641 28.7098V28.0846V28.0764Z"/>
<path fill="white" d="M85.4883 40.457L85.4142 40.4899C84.4106 40.9094 83.5962 41.2714 82.9875 41.5758C82.8641 41.4524 82.7736 41.2714 82.7242 41.0328C82.6666 40.7943 82.6255 40.5475 82.6008 40.2842C82.1566 40.6544 81.7041 40.9423 81.227 41.148C80.7581 41.3536 80.2399 41.4606 79.6887 41.4606C79.2445 41.4606 78.8167 41.3783 78.3889 41.2138C77.9611 41.0493 77.5827 40.7943 77.229 40.457C76.8835 40.1197 76.6038 39.7001 76.3981 39.1901C76.1925 38.6801 76.0938 38.096 76.0938 37.4297C76.0938 36.8291 76.2007 36.2533 76.4146 35.7103C76.6285 35.1674 76.9328 34.682 77.3195 34.2625C77.7061 33.843 78.1586 33.5139 78.6686 33.2753C79.1869 33.0368 79.738 32.9134 80.3221 32.9134C80.7252 32.9134 81.1036 32.9545 81.4409 33.045C81.7864 33.1273 82.1648 33.2671 82.5844 33.4481V29.4007C82.5844 28.7837 82.354 28.4793 81.9016 28.4793C81.7946 28.4793 81.6795 28.4958 81.5643 28.5369C81.4491 28.5698 81.3257 28.611 81.2023 28.6521L81.1283 28.685V28.0598C81.5725 27.887 82.0085 27.6978 82.4445 27.4922C82.8805 27.2865 83.3494 27.0315 83.8512 26.7354H84.0322C84.0158 26.9328 84.0075 27.3441 83.9993 27.9775C83.9829 28.611 83.9829 29.3596 83.9829 30.2316V38.6389C83.9829 39.2066 84.0404 39.5932 84.1474 39.8071C84.2543 40.021 84.4271 40.1279 84.641 40.1279C84.9371 40.1279 85.2086 40.0456 85.4718 39.8893V40.4405L85.4883 40.457ZM82.6008 34.5669C82.2471 34.2625 81.8934 34.0157 81.5396 33.8347C81.1859 33.6537 80.7663 33.5633 80.281 33.5633C79.4254 33.5633 78.7426 33.8676 78.2491 34.4764C77.7555 35.0851 77.5005 35.8255 77.5005 36.714C77.5005 37.1417 77.5581 37.5777 77.665 38.0302C77.7719 38.4744 77.9447 38.894 78.175 39.2724C78.4054 39.6508 78.6933 39.9552 79.047 40.1855C79.4008 40.4158 79.8121 40.5228 80.281 40.5228C80.7746 40.5228 81.1941 40.4487 81.5561 40.2924C81.918 40.1361 82.2635 39.9305 82.5926 39.6755V34.5833L82.6008 34.5669Z"/>
<path fill="white" d="M86.0059 40.7863H86.376C86.7462 40.7863 87.0177 40.6794 87.1987 40.4737C87.3797 40.2681 87.4619 39.8567 87.4619 39.2562V35.5379C87.4619 35.1842 87.4126 34.9374 87.3139 34.8057C87.2151 34.6741 87.0753 34.6001 86.8943 34.6001C86.7709 34.6001 86.6393 34.6165 86.4994 34.6577C86.3596 34.6906 86.228 34.7399 86.1046 34.8057V34.2546C86.2856 34.1805 86.4994 34.09 86.738 33.9749C86.9766 33.8597 87.2151 33.7445 87.4619 33.6294C87.7087 33.506 87.9391 33.3826 88.1612 33.251C88.3833 33.1193 88.556 33.0124 88.6794 32.9301H88.8604V39.2562C88.8604 39.8567 88.9509 40.2598 89.1237 40.4737C89.3046 40.6794 89.5761 40.7863 89.9463 40.7863H90.3165V41.3375L89.6172 41.321C88.9262 41.2964 88.4491 41.2881 88.1612 41.2881C87.8732 41.2881 87.4043 41.2964 86.7051 41.321L86.0059 41.3375V40.7863ZM87.5031 29.5162C87.684 29.3352 87.8979 29.2529 88.1529 29.2529C88.408 29.2529 88.6301 29.3434 88.8028 29.5162C88.9838 29.6972 89.0661 29.911 89.0661 30.1661C89.0661 30.4211 88.9756 30.6432 88.8028 30.8159C88.6218 30.9969 88.408 31.0792 88.1529 31.0792C87.8979 31.0792 87.6758 30.9887 87.5031 30.8159C87.3221 30.635 87.2398 30.4211 87.2398 30.1661C87.2398 29.911 87.3303 29.6889 87.5031 29.5162Z"/>
<path fill="white" d="M91.1562 40.7865H91.4853C91.9049 40.7865 92.1681 40.7043 92.2833 40.548C92.3984 40.3917 92.456 40.0379 92.456 39.5032V36.3772C92.456 35.5957 92.4067 35.0774 92.3079 34.8224C92.2092 34.5674 92.0447 34.444 91.8144 34.444C91.6416 34.444 91.4195 34.5098 91.1562 34.6496V34.0985C91.5511 33.9669 91.9542 33.7941 92.382 33.5967C92.8015 33.391 93.2046 33.1771 93.5666 32.9468H93.7476V34.5674C94.2165 34.0738 94.6607 33.6872 95.0967 33.391C95.5327 33.0949 96.0098 32.9468 96.5445 32.9468C96.9394 32.9468 97.3507 33.0619 97.7785 33.2841C98.2063 33.5144 98.5435 33.8681 98.7903 34.3453C98.9466 34.6414 99.0536 34.9705 99.1112 35.3407C99.1688 35.7108 99.1934 36.1222 99.1934 36.5746V39.9063C99.1934 40.2765 99.251 40.5151 99.3744 40.6302C99.4978 40.7454 99.7775 40.803 100.222 40.803H100.501V41.3541H100.411C99.9585 41.3295 99.613 41.313 99.3826 41.3048C99.1523 41.3048 98.8891 41.2966 98.6094 41.2966C98.379 41.2966 98.1158 41.2966 97.8196 41.3048C97.5235 41.313 97.2026 41.3295 96.8489 41.3541H96.6103V40.803H96.9394C97.3096 40.803 97.5399 40.696 97.6469 40.4904C97.7538 40.2847 97.8032 39.8734 97.8032 39.2729V36.3854C97.8032 35.8589 97.762 35.4558 97.6798 35.1761C97.5975 34.9047 97.4412 34.6496 97.1944 34.4111C96.8983 34.1149 96.4787 33.9669 95.9276 33.9669C95.5985 33.9669 95.2448 34.082 94.8664 34.3041C94.4962 34.5345 94.1589 34.7895 93.8627 35.0692V39.8158C93.8627 40.2354 93.9121 40.4986 94.0026 40.6138C94.0931 40.7289 94.3152 40.7865 94.6771 40.7865H95.0227V41.3377H94.9486C94.5784 41.3212 94.2576 41.313 93.9944 41.3048C93.7229 41.2883 93.4514 41.2883 93.1882 41.2883C92.8673 41.2883 92.3573 41.2966 91.6581 41.3212C91.4606 41.3295 91.2961 41.3377 91.1645 41.3377V40.7865H91.1562Z"/>
<path fill="white" d="M109.271 34.032H107.691L107.724 34.0896C107.922 34.3364 108.07 34.575 108.185 34.8135C108.292 35.0521 108.349 35.3647 108.349 35.7431C108.349 36.1873 108.251 36.574 108.061 36.9195C107.872 37.265 107.625 37.5447 107.329 37.775C107.033 38.0054 106.704 38.1699 106.367 38.2768C106.029 38.3838 105.709 38.4414 105.413 38.4414C105.157 38.4414 104.894 38.4249 104.639 38.3838L104.606 38.4002C104.31 38.5977 104.063 38.7786 103.85 38.9514C103.644 39.1242 103.537 39.2805 103.537 39.4285C103.537 39.6589 103.693 39.8152 104.006 39.8892C104.318 39.9633 104.804 40.0208 105.47 40.0537C106.145 40.0866 106.704 40.1525 107.157 40.2265C107.601 40.3088 107.996 40.4404 108.325 40.6214C108.654 40.8023 108.909 41.0574 109.09 41.3782C109.271 41.699 109.353 42.1021 109.353 42.5957C109.353 43.0481 109.246 43.4512 109.032 43.7885C108.818 44.134 108.522 44.4137 108.16 44.6441C107.798 44.8744 107.379 45.0389 106.91 45.1541C106.441 45.261 105.955 45.3186 105.454 45.3186C105.059 45.3186 104.656 45.2857 104.228 45.2199C103.808 45.1541 103.397 45.0307 103.01 44.8579C102.624 44.6852 102.303 44.4466 102.056 44.1423C101.801 43.8379 101.678 43.4595 101.678 43.0235C101.678 42.4805 101.859 42.0528 102.221 41.7237C102.583 41.3946 103.019 41.189 103.537 41.0903V41.0574C103.405 41.0327 103.274 40.9998 103.158 40.9669C103.043 40.934 102.912 40.8682 102.772 40.7694C102.632 40.6789 102.517 40.5638 102.426 40.4157C102.336 40.2759 102.286 40.1031 102.286 39.9139C102.286 39.6424 102.402 39.3956 102.624 39.1571C102.854 38.9267 103.249 38.6223 103.825 38.2604L103.973 38.1699C103.397 37.9396 102.945 37.6023 102.616 37.1663C102.286 36.7303 102.122 36.2614 102.122 35.7596C102.122 34.9369 102.418 34.2624 103.027 33.7276C103.627 33.1929 104.36 32.9297 105.232 32.9297C105.561 32.9297 105.849 32.9544 106.095 33.012C106.342 33.0695 106.581 33.1518 106.811 33.2587H109.805L109.271 34.032ZM103.414 44.2163C103.882 44.5453 104.615 44.7016 105.593 44.7016C106.367 44.7016 107.017 44.5618 107.535 44.2821C108.053 44.0024 108.316 43.5746 108.316 43.0152C108.316 42.4558 108.045 42.0116 107.494 41.7648C106.943 41.518 106.227 41.3946 105.33 41.3946C105.034 41.3946 104.763 41.4029 104.499 41.4275C104.244 41.4522 103.973 41.5098 103.693 41.6085C103.414 41.7072 103.175 41.8718 102.986 42.0939C102.797 42.3242 102.698 42.6204 102.698 43.007C102.698 43.4841 102.936 43.8872 103.405 44.2081L103.414 44.2163ZM103.981 37.1581C104.294 37.6516 104.73 37.8984 105.281 37.8984C105.832 37.8984 106.268 37.7174 106.54 37.3555C106.811 36.9935 106.951 36.5328 106.951 35.9652C106.951 35.1344 106.778 34.5092 106.433 34.0978C106.087 33.6865 105.659 33.4809 105.141 33.4809C104.697 33.4809 104.318 33.6701 103.989 34.0567C103.66 34.4433 103.504 34.9205 103.504 35.4799C103.504 36.1051 103.66 36.6645 103.973 37.1581H103.981Z"/>
<path fill="white" d="M115.728 35.217H115.358C115.284 34.9702 115.21 34.7646 115.136 34.5918C115.062 34.4191 114.955 34.2546 114.815 34.0982C114.675 33.9419 114.486 33.8103 114.256 33.7116C114.025 33.6129 113.729 33.5635 113.376 33.5635C112.849 33.5635 112.454 33.6952 112.199 33.9502C111.944 34.2052 111.813 34.4931 111.813 34.7975C111.813 35.143 111.936 35.4227 112.191 35.6448C112.446 35.8669 112.791 36.0808 113.227 36.2865L114.239 36.7471L114.256 36.7636C114.486 36.8623 114.692 36.961 114.865 37.068C115.037 37.1749 115.21 37.3065 115.383 37.4711C115.556 37.6356 115.695 37.8413 115.802 38.088C115.909 38.3348 115.967 38.6228 115.967 38.9518C115.967 39.6675 115.704 40.2598 115.185 40.7452C114.667 41.2305 113.935 41.4691 112.989 41.4691C112.512 41.4691 112.076 41.428 111.673 41.3375C111.27 41.247 110.85 41.1318 110.414 40.9837C110.447 40.63 110.472 40.268 110.472 39.8979C110.472 39.5277 110.455 39.1575 110.414 38.812H110.932C111.006 39.4619 111.22 39.9637 111.574 40.3092C111.928 40.6629 112.397 40.8357 112.972 40.8357C113.466 40.8357 113.877 40.7287 114.215 40.5066C114.552 40.2845 114.725 39.939 114.725 39.4619C114.725 39.0917 114.618 38.812 114.404 38.6063C114.19 38.4006 113.877 38.2032 113.474 37.9893L113.417 37.9564L112.035 37.2572C111.862 37.1749 111.697 37.0762 111.549 36.9775C111.393 36.8788 111.253 36.7554 111.113 36.6073C110.743 36.2289 110.562 35.7682 110.562 35.2253C110.562 34.9702 110.62 34.707 110.727 34.4438C110.834 34.1805 111.006 33.9337 111.237 33.6952C111.467 33.4648 111.763 33.2756 112.125 33.1358C112.487 32.9959 112.923 32.9219 113.417 32.9219C113.787 32.9219 114.132 32.9548 114.461 33.0124C114.79 33.07 115.136 33.1522 115.49 33.2509L115.654 33.2838L115.728 35.2006V35.217Z"/>
<path fill="white" d="M40.5319 0H39.8984V44.151H40.5319V0Z"/>
<path fill="#A58C4C" d="M18.9284 38.417V33.1768H14.4039V38.417C14.4039 38.417 14.4039 39.9553 13.1699 41.0988H20.1624C18.9284 39.9553 18.9284 38.417 18.9284 38.417Z"/>
<path fill="#A4C64F" d="M9.78125 25.5182C10.6121 26.5136 12.0846 28.891 11.1057 32.379C11.8543 32.6422 12.6276 32.8561 13.4173 33.0124V30.7913C13.4173 30.7337 13.3844 26.6534 11.6404 22.7212C11.2455 23.5109 10.645 24.5228 9.78125 25.5099V25.5182Z"/>
<path fill="#A4C64F" d="M22.022 0.879684C21.0348 0.542402 20.0065 0.303837 18.9453 0.155762C19.4883 2.8787 19.7433 5.32193 19.7844 7.4937C20.7962 6.25974 22.0713 4.0633 22.022 0.879684Z"/>
<path fill="#A4C64F" d="M7.8814 15.9752C7.8814 15.9752 7.8814 15.9752 7.88962 15.9752C8.3503 16.2714 8.79453 16.6005 9.2223 16.9624C9.26343 16.9953 9.30456 17.0365 9.34569 17.0776C10.4892 15.4076 13.4507 10.0852 12.9489 0.419145C13.1792 0.369787 13.4178 0.320429 13.6481 0.279297C12.1509 0.550768 10.7195 1.01967 9.38683 1.66956C9.63362 1.54616 9.88864 1.43099 10.1437 1.32405C9.98735 5.70049 6.86955 8.53036 5.61914 9.48463C6.67212 12.1088 6.68034 14.2806 6.60631 15.2678C7.04231 15.4734 7.47008 15.712 7.87317 15.9752H7.8814Z"/>
<path fill="#A4C64F" d="M14.3707 0.164114C14.9712 10.8091 11.5901 16.4524 10.3809 18.1059C11.5243 19.381 12.3799 20.8288 13.0133 22.2766C13.8524 21.5774 15.3249 20.0967 16.4931 17.5382C17.9738 14.3135 19.2407 8.74424 17.4473 0.0242653C17.1841 0.0160389 16.9208 0.0078125 16.6576 0.0078125C15.6293 0.0078125 14.6257 0.106529 13.655 0.279283C13.8935 0.238151 14.1239 0.197019 14.3624 0.164114H14.3707Z"/>
<path fill="#A4C64F" d="M17.457 0.0161133C17.6874 0.0243397 17.9177 0.0407924 18.148 0.0654716C17.9177 0.0490188 17.6874 0.0243397 17.457 0.0161133Z"/>
<path fill="#A4C64F" d="M33.2182 14.7245C33.2429 14.9631 33.2676 15.1934 33.284 15.432C29.9523 15.3251 27.1883 16.2053 25.0412 18.048C24.0623 18.8871 23.2725 19.8825 22.6309 20.9272C23.6345 20.7874 25.0494 20.6804 26.6618 20.8038C27.2788 20.0306 28.9405 18.2372 31.3755 17.7765C32.0172 17.6531 32.6588 17.6367 33.3087 17.7189C33.2758 18.1961 33.2347 18.6732 33.1606 19.1421C32.6506 19.0763 32.1488 19.0845 31.6552 19.175C30.232 19.4383 29.105 20.3185 28.3976 21.0177C29.6891 21.2481 31.0382 21.6594 32.3545 22.3257C32.9961 20.557 33.3416 18.6485 33.3416 16.6577C33.3416 15.9996 33.3005 15.3497 33.2264 14.7163L33.2182 14.7245Z"/>
<path fill="#A4C64F" d="M32.1074 22.9432C32.1897 22.7458 32.272 22.5401 32.346 22.3345C32.272 22.5401 32.1897 22.7376 32.1074 22.9432Z"/>
<path fill="#A4C64F" d="M22.0312 0.888184C22.5166 1.05271 22.9937 1.24192 23.4544 1.44758C22.9937 1.24192 22.5166 1.05271 22.0312 0.888184Z"/>
<path fill="#A4C64F" d="M31.8027 23.6505C31.9015 23.4449 31.9919 23.231 32.0824 23.0171C31.9919 23.231 31.9015 23.4366 31.8027 23.6505Z"/>
<path fill="#A4C64F" d="M21.7828 22.5237C21.2152 23.7495 20.8285 24.9999 20.5488 26.1433C22.2928 25.9212 25.8302 25.7978 29.2277 27.6076C30.256 26.4313 31.1197 25.1068 31.7861 23.6672C27.6811 21.5448 23.025 22.2687 21.7746 22.5155L21.7828 22.5237Z"/>
<path fill="#A4C64F" d="M18.2129 0.0737305C18.4597 0.0984096 18.6982 0.123089 18.9368 0.155994C18.6982 0.123089 18.4515 0.0901832 18.2129 0.0737305Z"/>
<path fill="#A4C64F" d="M0.486328 20.6729C0.543913 20.895 0.601498 21.1171 0.667309 21.3392C0.601498 21.1171 0.543913 20.895 0.486328 20.6729Z"/>
<path fill="#A4C64F" d="M4.62305 28.1831C4.80403 28.3723 4.98501 28.5533 5.17421 28.7343C4.98501 28.5533 4.80403 28.3723 4.62305 28.1831Z"/>
<path fill="#A4C64F" d="M18.4925 30.7911C18.4925 30.4785 18.5418 24.3252 21.8242 19.5292C21.5527 17.8263 20.7218 9.83029 27.3029 3.83326C27.6731 4.13763 28.0269 4.45846 28.3641 4.79574C23.2802 9.35316 22.9183 15.1774 23.091 17.9415C23.4119 17.596 23.7491 17.2669 24.1111 16.9543C25.2299 16.0001 26.4803 15.2679 27.8706 14.7744C27.6073 13.2854 27.377 9.7398 30.5112 7.3706C30.7827 7.7737 31.0295 8.18502 31.2681 8.60456C28.9235 10.4884 29.0387 13.1455 29.2444 14.3713C30.4536 14.0916 31.7452 13.9599 33.119 13.9928C33.1519 14.215 33.1848 14.4453 33.2095 14.6674C32.502 8.74441 28.6932 3.77567 23.4448 1.43115C23.3131 6.07083 20.6478 8.77732 19.7511 9.56705C19.3398 18.6243 15.0703 22.5483 13.5566 23.6589C14.8153 27.2702 14.84 30.5526 14.84 30.7747V33.2179C15.4405 33.2837 16.0492 33.3166 16.658 33.3166C17.2667 33.3166 17.8837 33.2837 18.4842 33.2179V30.7747L18.4925 30.7911Z"/>
<path fill="#A4C64F" d="M28.7344 28.1587C28.9071 27.9777 29.0717 27.7967 29.2362 27.6157C29.0717 27.8049 28.9071 27.9859 28.7344 28.1587Z"/>
<path fill="#A4C64F" d="M28.2 28.7019C24.8765 27.106 21.4544 27.4432 20.2451 27.6407C19.9325 29.4669 19.916 30.7667 19.916 30.7996V33.0207C23.3464 32.3379 26.3984 30.6104 28.7183 28.1754C28.5455 28.3564 28.3727 28.5291 28.1918 28.7019H28.2Z"/>
<path fill="#A4C64F" d="M0.887714 22.038C0.813677 21.8159 0.739639 21.5938 0.673828 21.3717C1.43066 23.9548 2.79624 26.2746 4.60604 28.1749C4.42506 27.9857 4.25231 27.7965 4.07955 27.5991C8.59584 26.2746 10.3892 22.2108 10.8005 21.1002C10.1424 19.9897 9.31976 18.9367 8.29146 18.0482C8.11048 17.8919 7.92128 17.7439 7.73207 17.604C6.93411 18.8709 4.88574 21.3388 0.887714 22.0463V22.038Z"/>
<path fill="#A4C64F" d="M9.78906 31.8521C9.99472 31.9425 10.2004 32.033 10.4143 32.1235C10.2004 32.0413 9.99472 31.9508 9.78906 31.8521Z"/>
<path fill="#A4C64F" d="M9.77196 31.8359C10.4794 29.1212 9.42646 27.3196 8.7848 26.5381C7.83054 27.4101 6.63771 28.1998 5.18164 28.7345C6.52254 30.0096 8.0691 31.0626 9.77196 31.8359Z"/>
<path fill="#A4C64F" d="M6.53998 16.8389C4.70549 15.8352 2.53373 15.3663 0.0493583 15.4404C0.0658111 15.2018 0.0904903 14.9632 0.115169 14.7329C0.0411319 15.3663 0 16.0162 0 16.6743C0 18.0564 0.172754 19.3973 0.485357 20.6724C4.15433 20.0965 5.89832 17.8918 6.53998 16.8389Z"/>
<path fill="#A4C64F" d="M10.4727 32.1401C10.6783 32.2224 10.884 32.3047 11.0896 32.3787C10.884 32.3047 10.6783 32.2224 10.4727 32.1401Z"/>
<path fill="#A4C64F" d="M0.213537 14.0096C2.03157 13.9767 3.70153 14.1988 5.20695 14.7088C5.23163 13.6723 5.09178 11.8049 4.1293 9.61669C4.09639 9.56733 4.07994 9.51797 4.06349 9.46861C3.75088 8.78582 3.35602 8.0619 2.86243 7.33798C3.14213 6.91843 3.44651 6.51534 3.75911 6.1287C4.25269 6.81972 4.67224 7.50251 5.01775 8.16884C6.12008 7.28039 8.25894 5.19912 8.66204 2.05664C8.9006 1.92501 9.14739 1.80162 9.39419 1.67822C4.40077 4.09678 0.797611 8.94212 0.123047 14.6841C0.147726 14.4538 0.180632 14.2317 0.213537 14.0014V14.0096Z"/>
</svg>