<?xml version="1.0" encoding="utf-8"?>
<!-- Generator: Adobe Illustrator 25.3.0, SVG Export Plug-In . SVG Version: 6.00 Build 0)  -->
<svg version="1.1" xmlns="http://www.w3.org/2000/svg" xmlns:xlink="http://www.w3.org/1999/xlink" x="0px" y="0px"
	 viewBox="0 0 425.2 425.2" style="enable-background:new 0 0 425.2 425.2;" xml:space="preserve">
<style type="text/css">
	.st0{display:none;}
	.st1{fill:#3F558A;}
	.st2{fill:none;}
	.st3{display:inline;fill:#3F558A;}
	.st4{display:inline;fill:#9FB3DB;}
	.st5{display:inline;fill:none;}
	.st6{display:inline;}
	.st7{fill:#FFFFFF;}
	.st8{fill:#5A73B7;}
	.st9{fill:#172951;}
	.st10{display:none;fill:#5A73B7;}
	.st11{font-family:'Helvetica';}
	.st12{font-size:48px;}
	.st13{letter-spacing:3;}
</style>
<g id="Layer_2" class="st0">
</g>
<g id="Layer_1">
	<g id="No_longer_used" class="st0">
		<path class="st1" d="M298.8,264.2v-55.7H197.8v-26.2L304,31.6h23.3v150.7l0,0v26.2l0,0v55.7H298.8z M298.8,182.3V77.4l-72.8,104.9
			H298.8z"/>
		<line class="st2" x1="298.8" y1="39.2" x2="298.8" y2="208.5"/>
		<polyline id="Revised_4_1_" class="st3" points="298.4,39.6 298.4,77.8 225.6,182.7 298.4,182.7 298.4,208.8 197.5,208.8 
			197.5,182.7 298.4,39.6 		"/>
		<line class="st4" x1="298.4" y1="208" x2="177.5" y2="207.9"/>
		<line class="st5" x1="298.4" y1="181.8" x2="298.4" y2="208"/>
		<g id="MASK" class="st6">
			<rect x="298.8" y="41.5" class="st7" width="32.2" height="53.3"/>
			<path class="st7" d="M301.3,78.7h-2.5c0-13.2,0-26.3,0-39.5c0-4.8,0-9.5,0-14.3c0.8,0,1.7,0,2.5,0V78.7z"/>
			<rect x="300" y="13.1" class="st7" width="32.2" height="32.2"/>
			<rect x="298.4" y="89.3" class="st7" width="32.2" height="181.4"/>
		</g>
		<g class="st6">
			<path class="st1" d="M299.1,263.7V208H198.2v-26.2L304.4,31.1h23.3v150.7V208v55.7H299.1z M299.1,181.8V77l-72.8,104.9H299.1z"/>
		</g>
	</g>
	<g>
		<path class="st1" d="M88.6,298.5c-1.4-0.7-2.7-1.1-3.9-1.1c-1.4,0-2.5,0.5-3.4,1.5s-1.3,2.4-1.3,4.2c0,2.1,1.2,4,3.5,5.6
			c1.7,1.2,2.8,2,3.4,2.5c0.6,0.5,1.1,1.1,1.7,1.9c0.6,0.8,1,1.8,1.4,2.9s0.5,2.4,0.5,3.7c0,3.4-0.7,6.1-2.2,8
			c-1.5,1.9-3.3,2.8-5.3,2.8c-2,0-3.7-0.6-5.2-1.8l0.5-3.5c1.8,1.2,3.3,1.8,4.6,1.8c1.5,0,2.7-0.6,3.7-1.8c0.9-1.2,1.4-2.9,1.4-5
			c0-1.6-0.3-2.9-0.9-4c-0.6-1.1-1.7-2.2-3.3-3.3c-1.7-1.2-2.7-2-3.2-2.4c-0.5-0.4-1-1-1.4-1.8c-0.5-0.7-0.9-1.6-1.1-2.5
			c-0.3-0.9-0.4-2-0.4-3.1c0-2.9,0.7-5.2,2-6.8c1.4-1.6,3.1-2.5,5.2-2.5c1.5,0,3.1,0.4,4.6,1.1L88.6,298.5z"/>
		<path class="st1" d="M103.7,293.9c2.6,0,4.6,1.6,5.9,4.7s2,7.7,2.1,13.6c0,5.9-0.7,10.5-2,13.6s-3.3,4.7-5.9,4.7
			c-2.6,0-4.5-1.6-5.9-4.7c-1.4-3.1-2-7.7-2.1-13.6c0-6,0.7-10.5,2-13.6S101.1,293.9,103.7,293.9z M103.8,326.9
			c3.4,0,5.1-4.9,5.1-14.7c0-9.8-1.7-14.7-5.1-14.7c-1.7,0-2.9,1.3-3.8,3.8c-0.9,2.5-1.3,6.2-1.3,10.9c0,4.8,0.4,8.4,1.3,10.9
			C100.8,325.7,102.1,326.9,103.8,326.9z"/>
		<path class="st1" d="M130.6,329.8l-12.5,0l-0.1-35.3l2.7,0l0.1,31.7l9.9,0L130.6,329.8z"/>
		<path class="st1" d="M150.6,318.7c0,4.1-0.5,7.1-1.6,9c-1.1,1.9-2.7,2.8-4.9,2.8c-4.5,0-6.7-3.9-6.7-11.7l0-24.3l2.7,0l0,23.9
			c0,5.6,1.3,8.5,4,8.4c1.3,0,2.3-0.7,2.9-2c0.6-1.3,0.9-3.5,0.9-6.5l0-23.9l2.7,0L150.6,318.7z"/>
		<path class="st1" d="M172.4,297.8l-7.1,0l0.1,32l-2.7,0l-0.1-32l-7.1,0l0-3.3l16.9,0L172.4,297.8z"/>
		<path class="st1" d="M189.2,329.7l-10.5,0l0-3.6l4,0l0-28.1l-4,0l0-3.6l10.5,0l0,3.6l-3.8,0l0,28.1l3.8,0L189.2,329.7z"/>
		<path class="st1" d="M204.1,293.7c2.6,0,4.5,1.6,5.9,4.7c1.4,3.1,2,7.7,2.1,13.6c0,5.9-0.7,10.5-2,13.6c-1.3,3.1-3.3,4.7-5.9,4.7
			c-2.6,0-4.5-1.6-5.9-4.7c-1.4-3.1-2-7.7-2.1-13.6s0.7-10.5,2-13.6C199.5,295.3,201.5,293.7,204.1,293.7z M204.1,326.8
			c3.4,0,5.1-4.9,5.1-14.7c0-9.8-1.7-14.7-5.1-14.7c-1.7,0-2.9,1.3-3.8,3.8c-0.9,2.5-1.3,6.2-1.3,10.9c0,4.8,0.4,8.4,1.3,10.9
			C201.2,325.5,202.5,326.8,204.1,326.8z"/>
		<path class="st1" d="M231.2,329.7l-3,0l-8.3-27.8l0,27.9l-2.7,0l-0.1-35.3l3,0l8.3,27.6l0-27.6l2.6,0L231.2,329.7z"/>
		<path class="st1" d="M249.2,298.2c-1.4-0.7-2.7-1.1-3.9-1.1c-1.4,0-2.5,0.5-3.4,1.5c-0.9,1-1.3,2.4-1.3,4.2c0,2.1,1.2,4,3.5,5.6
			c1.7,1.2,2.8,2,3.4,2.5s1.1,1.1,1.7,1.9c0.6,0.8,1,1.8,1.4,2.9c0.3,1.1,0.5,2.4,0.5,3.7c0,3.4-0.7,6.1-2.2,8
			c-1.5,1.9-3.3,2.8-5.3,2.8c-2,0-3.7-0.6-5.2-1.8l0.5-3.5c1.8,1.2,3.3,1.8,4.6,1.8c1.5,0,2.7-0.6,3.7-1.8c0.9-1.2,1.4-2.9,1.4-5
			c0-1.6-0.3-2.9-0.9-4c-0.6-1.1-1.7-2.2-3.3-3.3c-1.7-1.2-2.7-2-3.2-2.4c-0.5-0.4-1-1-1.4-1.8c-0.5-0.7-0.9-1.6-1.1-2.5
			c-0.3-0.9-0.4-2-0.4-3.1c0-2.9,0.7-5.2,2-6.8c1.4-1.6,3.1-2.5,5.2-2.5c1.5,0,3.1,0.4,4.6,1.1L249.2,298.2z"/>
		<path class="st1" d="M290.8,297.9l-9.5,0l0,11.5l8.7,0l0,3.6l-8.7,0l0,16.6l-2.7,0l-0.1-35.3l12.2,0L290.8,297.9z"/>
		<path class="st1" d="M304.4,293.6c2.6,0,4.5,1.6,5.9,4.7c1.4,3.1,2,7.7,2.1,13.6c0,5.9-0.7,10.5-2,13.6c-1.3,3.1-3.3,4.7-5.9,4.7
			c-2.6,0-4.5-1.6-5.9-4.7s-2-7.7-2.1-13.6s0.7-10.5,2-13.6C299.9,295.2,301.8,293.6,304.4,293.6z M304.5,326.6
			c3.4,0,5.1-4.9,5.1-14.7c0-9.8-1.7-14.7-5.1-14.7c-1.7,0-2.9,1.3-3.8,3.8s-1.3,6.2-1.3,10.9c0,4.8,0.4,8.4,1.3,10.9
			C301.5,325.4,302.8,326.6,304.5,326.6z"/>
		<path class="st1" d="M333.7,329.5l-3.3,0l-6.8-16l-3,0l0,16l-2.7,0l-0.1-35.3l6.5,0c2.2,0,3.9,0.8,5.2,2.4
			c1.3,1.6,1.9,3.9,1.9,6.8c0,2.2-0.5,4.1-1.4,5.7c-0.9,1.7-2.2,2.8-3.8,3.4L333.7,329.5z M320.6,309.9l3.4,0c1.4,0,2.6-0.6,3.4-1.8
			c0.9-1.2,1.3-2.7,1.3-4.4c0-3.9-1.6-5.9-4.7-5.9l-3.4,0L320.6,309.9z"/>
		<path class="st1" d="M87.1,384.1l-12.9,0l0-4.4l4.9,0L79,345.1l-4.9,0l0-4.4l12.9,0l0,4.4l-4.7,0l0.1,34.6l4.7,0L87.1,384.1z"/>
		<path class="st1" d="M114,384.1l-3.7,0l-10.2-34.3l0.1,34.3l-3.3,0l-0.1-43.4l3.7,0l10.3,34l-0.1-34l3.2,0L114,384.1z"/>
		<path class="st1" d="M140.5,344.7l-8.7,0l0.1,39.3l-3.3,0l-0.1-39.3l-8.8,0l0-4.1l20.8,0L140.5,344.7z"/>
		<path class="st1" d="M162.5,384l-14.8,0l-0.1-43.4l14.7,0l0,4.4l-11.4,0l0,13.4l10.9,0l0,4.4l-10.9,0l0,16.8l11.5,0L162.5,384z"/>
		<path class="st1" d="M188.7,380.9c-2.3,2.6-4.9,3.9-7.7,3.9c-3.7,0-6.5-1.9-8.4-5.7c-1.9-3.8-2.9-9.4-2.9-16.8
			c0-7.1,0.9-12.7,2.7-16.6c1.8-4,4.7-5.9,8.5-6c1.4,0,2.7,0.3,4.1,0.8c1.3,0.5,2.4,1.2,3.2,2.1l-1.1,4c-1.9-1.6-4-2.5-6.2-2.5
			c-2.6,0-4.5,1.5-5.8,4.4c-1.3,2.9-1.9,7.5-1.9,13.8c0,12.1,2.6,18.1,7.8,18.1c1.9,0,3.4-0.6,4.4-1.9l0-10.7l-5.1,0l0-4.4l8.4,0
			L188.7,380.9z"/>
		<path class="st1" d="M215.5,383.9l-4.1,0l-8.3-19.7l-3.7,0l0,19.7l-3.3,0l-0.1-43.4l8,0c2.7,0,4.8,1,6.4,3c1.6,2,2.3,4.8,2.4,8.3
			c0,2.6-0.6,5-1.7,7.1c-1.1,2.1-2.7,3.5-4.7,4.2L215.5,383.9z M199.4,359.8l4.2,0c1.7,0,3.2-0.7,4.2-2.2c1.1-1.4,1.6-3.3,1.6-5.5
			c0-4.8-1.9-7.3-5.8-7.3l-4.2,0L199.4,359.8z"/>
		<path class="st1" d="M240.2,383.9l-3.5,0l-3.2-15.2l-9.3,0l-3.1,15.2l-3.4,0l9.2-43.4l4,0L240.2,383.9z M232.7,364.3l-3.7-18
			l-3.7,18L232.7,364.3z"/>
		<path class="st1" d="M264,344.5l-8.7,0l0.1,39.3l-3.3,0l-0.1-39.3l-8.8,0l0-4.1l20.8,0L264,344.5z"/>
		<path class="st1" d="M278.2,339.6c3.2,0,5.6,1.9,7.3,5.8s2.5,9.4,2.5,16.8c0,7.3-0.8,12.9-2.5,16.7c-1.7,3.9-4.1,5.8-7.3,5.8
			c-3.2,0-5.6-1.9-7.3-5.8c-1.7-3.8-2.5-9.4-2.5-16.7c0-7.3,0.8-12.9,2.5-16.8C272.6,341.5,275,339.6,278.2,339.6z M278.3,380.2
			c4.2,0,6.3-6,6.2-18.1c0-12.1-2.1-18.1-6.3-18.1c-2,0-3.6,1.6-4.6,4.7c-1.1,3.1-1.6,7.6-1.6,13.4c0,5.9,0.5,10.4,1.6,13.5
			C274.7,378.7,276.2,380.2,278.3,380.2z"/>
		<path class="st1" d="M314.3,383.8l-4.1,0l-8.3-19.7l-3.7,0l0,19.7l-3.3,0l-0.1-43.4l8,0c2.7,0,4.8,1,6.4,3s2.3,4.8,2.4,8.3
			c0,2.6-0.6,5-1.7,7.1c-1.1,2.1-2.7,3.5-4.7,4.2L314.3,383.8z M298.1,359.7l4.2,0c1.7,0,3.2-0.7,4.2-2.2c1.1-1.4,1.6-3.3,1.6-5.5
			c0-4.8-1.9-7.3-5.8-7.3l-4.2,0L298.1,359.7z"/>
		<path class="st1" d="M333.7,345.1c-1.7-0.9-3.3-1.3-4.8-1.3c-1.7,0-3.1,0.6-4.2,1.8c-1.1,1.2-1.6,2.9-1.6,5.1
			c0,2.6,1.4,4.9,4.2,6.9c2.1,1.5,3.5,2.5,4.2,3.1c0.7,0.6,1.4,1.4,2.1,2.4s1.3,2.2,1.7,3.6c0.4,1.4,0.6,2.9,0.6,4.6
			c0,4.2-0.9,7.5-2.8,9.8s-4,3.5-6.6,3.5c-2.4,0-4.6-0.7-6.4-2.2l0.7-4.3c2.2,1.5,4,2.2,5.6,2.2c1.9,0,3.4-0.7,4.5-2.2
			c1.1-1.5,1.7-3.5,1.7-6.1c0-1.9-0.4-3.6-1.1-4.9c-0.7-1.3-2.1-2.7-4.1-4.1c-2-1.4-3.4-2.4-4-2.9c-0.6-0.5-1.2-1.2-1.8-2.2
			c-0.6-0.9-1-2-1.4-3.1s-0.5-2.4-0.5-3.8c0-3.6,0.8-6.4,2.5-8.4c1.7-2,3.8-3,6.4-3c1.9,0,3.8,0.4,5.6,1.3L333.7,345.1z"/>
	</g>
	<polyline id="Revised_4" class="st1" points="298.4,39.6 298.4,77.8 225.6,182.7 298.4,182.7 298.4,208.8 197.5,208.8 197.5,182.7 
		298.4,39.6 	"/>
	<g>
		<path class="st8" d="M306.7,77V39.4h26.4V77H306.7z M307.2,263.7l-0.5-168.5h26.4v168.5H307.2z"/>
	</g>
	<g>
		<path class="st9" d="M77.1,191.7l22.4-2.5c1.1,11.2,3.5,20.5,7.4,27.7c3.9,7.2,9.9,13,18,17.5c8.2,4.4,17.3,6.7,27.5,6.7
			c9.1,0,17-1.7,24-5.1c6.9-3.4,12.1-8,15.5-13.9c3.4-5.9,5.1-12.3,5.1-19.2c0-7.1-1.6-13.2-4.9-18.5c-3.3-5.3-8.6-9.7-16.1-13.3
			c-4.8-2.4-15.5-6-31.9-11c-16.5-5-28-9.6-34.6-14c-8.6-5.6-14.9-12.6-19.1-20.9c-4.2-8.3-6.3-17.6-6.3-28
			c0-11.3,2.6-21.9,7.7-31.8c5.1-9.9,12.6-17.3,22.5-22.5c9.9-5.1,20.8-7.7,32.9-7.7c13.3,0,25,2.7,35.2,8
			c10.2,5.4,18,13.3,23.4,23.7c5.5,10.4,8.4,22.2,8.8,35.4l-22.8,2.1c-1.2-14.2-5.4-24.9-12.4-32.2c-7.1-7.3-17.5-10.9-31.3-10.9
			c-14.4,0-24.8,3.3-31.4,9.9c-6.6,6.6-9.8,14.5-9.8,23.8c0,8.1,2.3,14.7,7,19.9c4.6,5.2,16.5,10.6,35.8,16
			c19.3,5.5,32.5,10.2,39.7,14.3c10.4,6,18.1,13.7,23.1,22.9c5,9.3,7.5,19.9,7.5,32c0,12-1.5,22.5-6.9,33.1
			c-5.5,10.6-14.6,19.5-24.8,25.4c-10.2,5.9-21.8,8.8-34.6,8.8c-16.2,0-29.8-3-40.8-8.9c-11-5.9-19.6-14.8-25.8-26.7
			C80.7,220.1,77.5,206.7,77.1,191.7z"/>
	</g>
	<rect x="74.6" y="304" class="st2" width="266.3" height="47.6"/>
	<text transform="matrix(1 0 0 1 74.5991 338.5352)" class="st10 st11 st12 st13">www.s4i.io</text>
</g>
</svg>
