<?xml version="1.0" encoding="UTF-8"?>
<svg id="_图层_1" data-name="图层 1" xmlns="http://www.w3.org/2000/svg" viewBox="0 0 282.29 250.57">
  <defs>
    <style>
      .cls-1 {
        fill: #3160a3;
      }

      .cls-2 {
        fill: #d3aa32;
      }
    </style>
  </defs>
  <path class="cls-1" d="M282.24,57.96c-.2-3.47-.93-6.15-1.98-8.22-4.25-8.37-13.68-6.77-13.68-6.77l-26.28-.14h-.98v-8.31l-21.03,.15v8.3l-25.11-.15h-.67S187.94,.22,141.15,0h-.36c-47.13,0-51.69,42.82-51.69,42.82l-25.1,.07h-.6l-.37-8.22h-21.04v8.59H18.58c-9.55,0-14.26,3.03-16.54,6.46,0,.01-.01,.02-.02,.03C-.04,52.85-.1,56.27,.05,58.04H.05c.06,.77,.16,1.22,.16,1.22V193.29c0,6.31,10.37,13.12,23.11,13.12,.53,0,1.05-.03,1.54-.1,11.35-1.44,12.98-18.75,12.98-18.75,0,0,12.86-45.06,48.68-70.8,.37-.28,.76-.56,1.15-.83,12.94-9.01,28.81-15.5,48.07-16.53,1.77-.09,3.57-.14,5.4-.14s3.7,.05,5.51,.15c19.42,1.02,35.21,7.42,47.97,16.52,.38,.28,.77,.55,1.15,.83,34.73,25.57,46.43,71.05,47.7,79.69,1.56,10.62,11.48,10.15,13.96,9.86,.36-.04,.56-.08,.56-.08,15.21,.26,22.73-15.81,24.08-19.01,.15-.35,.22-.55,.22-.55V59.85c0-.66-.02-1.29-.05-1.89Zm-141.1,31.09c-20.78,0-37.64-16.85-37.64-37.64S120.36,13.77,141.14,13.77s37.64,16.85,37.64,37.64-16.85,37.64-37.64,37.64Z"/>
  <path class="cls-1" d="M280.26,49.74c-2.27-3.43-6.99-6.48-16.56-6.48h-23.4v-8.59h-21.04l-.37,8.22h-.6l-25.11-.07S188.63,0,141.5,0h-.35c-46.8,.21-51.37,42.82-51.37,42.82h-.68l-25.1,.15v-8.3l-21.04-.15v8.3h-.97s-26.29,.15-26.29,.15c0,0-9.41-1.6-13.66,6.75,0,.01-.01,.02-.02,.03C.97,51.83,.24,54.54,.05,58.04H.05c-.03,.59-.05,1.19-.05,1.81v126.82s.07,.19,.21,.53c1.33,3.15,8.85,19.29,24.09,19.03,0,0,.2,.04,.56,.08,2.48,.29,12.4,.76,13.95-9.86,1.27-8.64,12.97-54.12,47.71-79.69,.37-.28,.76-.56,1.15-.83,12.78-9.11,28.6-15.53,48.07-16.53,1.77-.09,3.57-.14,5.4-.14s3.7,.05,5.51,.15c19.21,1.04,35.05,7.52,47.97,16.52,.38,.28,.77,.55,1.15,.83,35.82,25.74,48.67,70.8,48.67,70.8,0,0,1.64,17.32,12.99,18.75,.49,.07,1,.1,1.53,.1,12.74,0,23.11-6.81,23.11-13.12V59.26s.11-.49,.17-1.3c.14-1.79,.05-5.16-1.98-8.22Zm-139.12,39.31c-20.78,0-37.64-16.85-37.64-37.64S120.36,13.77,141.14,13.77s37.64,16.85,37.64,37.64-16.85,37.64-37.64,37.64Z"/>
  <path class="cls-2" d="M136.03,132.37h9.33s12.89-4.22,12.89-12.44-8.89-8.67-8.89-8.67h-16.89s-8.44,.22-8.44,8.67,12,12.44,12,12.44Z"/>
  <path class="cls-2" d="M134.24,137.04h14l8.84,80.22s2.4,7.56,0,11.78-12.53,19.56-12.53,19.56c0,0-3.69,4.44-7,0-3.32-4.44-9.95-19.56-9.95-19.56,0,0-1.47-2.89,0-11.11s6.63-80.89,6.63-80.89Z"/>
  <path class="cls-2" d="M148.04,137.04h-14s-8.84,80.22-8.84,80.22c0,0-2.4,7.56,0,11.78,2.4,4.22,12.53,19.56,12.53,19.56,0,0,3.69,4.44,7,0s9.95-19.56,9.95-19.56c0,0,1.47-2.89,0-11.11-1.47-8.22-6.63-80.89-6.63-80.89Z"/>
</svg>