<?xml version="1.0" encoding="UTF-8" standalone="no"?>
<!DOCTYPE svg PUBLIC "-//W3C//DTD SVG 1.1//EN" "http://www.w3.org/Graphics/SVG/1.1/DTD/svg11.dtd">
<svg xmlns="http://www.w3.org/2000/svg" version="1.1" viewBox="0.00 0.00 1448.00 1448.00">
<path fill="#d70623" d="
  M 401.24 913.60
  L 401.24 534.40
  A 56.21 56.21 0.0 0 1 457.45 478.19
  L 624.79 478.19
  A 56.21 56.21 0.0 0 1 681.00 534.40
  L 681.00 913.60
  A 56.21 56.21 0.0 0 1 624.79 969.81
  L 457.45 969.81
  A 56.21 56.21 0.0 0 1 401.24 913.60
  Z
  M 424.13 917.86
  C 425.63 931.03 434.98 942.12 447.47 945.99
  Q 452.46 947.53 464.69 947.55
  Q 542.87 947.65 621.06 947.54
  Q 629.65 947.53 633.84 946.38
  C 644.87 943.37 653.88 934.57 657.15 923.71
  Q 658.58 918.97 658.58 909.14
  Q 658.62 723.24 658.58 537.35
  Q 658.57 529.04 657.33 524.78
  C 654.22 514.09 645.74 505.33 635.19 502.02
  Q 630.52 500.55 621.14 500.51
  Q 612.29 500.46 603.43 500.47
  Q 602.90 500.47 602.70 500.95
  C 602.42 501.62 602.53 502.60 602.37 503.17
  Q 600.84 508.35 596.55 510.43
  Q 594.04 511.64 588.02 511.64
  Q 541.69 511.61 495.35 511.64
  Q 488.33 511.65 485.60 510.25
  Q 480.62 507.71 479.80 501.05
  A 0.73 0.72 -3.6 0 0 479.08 500.42
  Q 468.56 500.56 458.25 500.44
  C 443.19 500.26 429.65 509.91 425.39 524.16
  Q 423.96 528.95 423.96 538.99
  Q 423.97 728.03 423.96 914.92
  Q 423.96 916.40 424.13 917.86
  Z"
/>
<path fill="#d70623" d="
  M 542.29 686.27
  Q 542.65 686.06 542.91 685.67
  Q 560.57 658.69 578.23 631.71
  Q 579.67 629.52 580.83 627.17
  Q 581.04 626.74 581.51 626.74
  L 635.27 626.74
  A 0.46 0.46 0.0 0 1 635.65 627.46
  L 580.77 707.57
  Q 580.51 707.96 580.25 707.58
  C 573.21 697.33 564.01 690.89 551.52 690.72
  C 541.82 690.58 532.87 694.93 526.37 702.04
  A 2.99 2.99 0.0 0 1 524.19 703.01
  Q 513.01 703.08 501.25 703.02
  C 498.48 703.01 497.07 700.24 495.69 698.33
  Q 470.05 662.83 444.57 627.56
  A 0.51 0.51 0.0 0 1 444.99 626.75
  L 501.45 626.73
  Q 501.89 626.73 502.07 627.12
  Q 502.63 628.28 503.28 629.25
  Q 522.60 657.77 542.00 686.20
  A 0.22 0.22 0.0 0 0 542.29 686.27
  Z"
/>
<path fill="#d70623" d="
  M 1196.25 647.18
  C 1219.02 646.84 1239.26 652.59 1252.57 671.88
  A 0.98 0.98 0.0 0 1 1252.44 673.13
  L 1231.35 693.39
  A 0.65 0.65 0.0 0 1 1230.40 693.33
  C 1223.75 685.07 1213.08 678.31 1202.20 677.66
  C 1195.41 677.26 1188.06 677.59 1182.52 681.77
  Q 1177.39 685.63 1178.32 691.44
  C 1180.06 702.24 1198.30 705.45 1206.73 707.06
  C 1231.84 711.86 1256.60 725.25 1255.00 755.00
  C 1253.60 781.03 1233.53 795.79 1209.24 798.79
  C 1180.19 802.38 1153.53 794.32 1135.16 771.04
  Q 1134.84 770.64 1135.09 770.19
  Q 1135.69 769.07 1136.57 768.07
  Q 1146.14 757.19 1155.70 746.30
  Q 1156.06 745.89 1156.43 746.29
  Q 1158.97 748.96 1161.31 751.73
  Q 1176.87 770.23 1201.50 769.42
  C 1209.78 769.15 1221.51 764.91 1218.71 754.00
  C 1215.65 742.07 1191.83 739.05 1182.02 736.41
  C 1161.80 730.97 1144.28 719.66 1142.29 697.00
  C 1139.54 665.68 1168.33 647.59 1196.25 647.18
  Z"
/>
<path fill="#d70623" d="
  M 1316.35 690.52
  C 1316.60 701.34 1335.40 705.50 1344.54 706.90
  Q 1354.80 708.48 1365.59 713.59
  C 1383.67 722.17 1394.53 734.37 1393.16 755.73
  C 1391.80 776.78 1377.32 791.43 1357.53 796.66
  Q 1342.55 800.63 1324.99 799.01
  Q 1292.74 796.04 1273.33 771.00
  A 1.10 1.09 -43.7 0 1 1273.37 769.60
  L 1293.92 746.17
  A 0.49 0.49 0.0 0 1 1294.68 746.20
  C 1306.37 761.77 1320.50 770.56 1340.51 769.41
  C 1358.29 768.39 1364.43 752.42 1346.52 743.90
  C 1335.45 738.63 1320.47 738.01 1307.77 732.11
  C 1291.72 724.67 1281.57 714.05 1280.27 695.52
  C 1278.31 667.58 1303.32 649.90 1328.76 647.53
  C 1352.61 645.30 1376.87 651.28 1390.92 672.32
  A 0.41 0.40 52.2 0 1 1390.86 672.84
  L 1369.54 693.31
  Q 1369.12 693.71 1368.71 693.30
  Q 1366.51 691.07 1364.31 688.96
  Q 1350.65 675.84 1331.50 677.74
  C 1324.73 678.41 1316.16 682.38 1316.35 690.52
  Z"
/>
<path fill="#d70623" d="
  M 88.59 710.76
  C 88.51 712.38 89.03 714.38 89.09 715.76
  C 90.23 742.68 90.02 769.89 89.99 796.95
  A 0.49 0.49 0.0 0 1 89.50 797.44
  L 55.81 797.42
  Q 55.20 797.41 55.20 796.81
  L 55.20 651.19
  Q 55.20 650.58 55.81 650.58
  L 86.76 650.55
  A 0.88 0.87 74.1 0 1 87.53 650.98
  L 128.73 718.05
  Q 129.31 718.98 129.89 718.05
  L 171.63 651.05
  A 1.07 1.06 15.6 0 1 172.54 650.54
  L 202.05 650.56
  A 0.71 0.70 90.0 0 1 202.75 651.27
  L 202.75 796.83
  Q 202.75 797.41 202.17 797.41
  L 168.28 797.43
  Q 167.98 797.43 167.98 797.13
  C 168.01 768.59 167.16 740.18 169.28 711.91
  Q 169.32 711.46 169.51 711.04
  Q 169.76 710.52 169.59 710.09
  Q 169.30 709.33 168.86 710.01
  L 136.10 760.90
  A 1.66 1.65 16.5 0 1 134.71 761.65
  L 122.81 761.66
  A 2.38 2.38 0.0 0 1 120.79 760.54
  L 89.11 710.62
  A 0.28 0.28 0.0 0 0 88.59 710.76
  Z"
/>
<path fill="#d70623" d="
  M 278.12 746.46
  L 278.13 796.90
  A 0.53 0.52 0.0 0 1 277.60 797.42
  L 245.14 797.40
  Q 244.12 797.40 244.12 796.39
  L 244.12 651.02
  Q 244.12 650.59 244.54 650.59
  Q 277.52 650.55 310.50 650.57
  C 337.36 650.59 359.99 669.03 360.24 697.00
  Q 360.45 720.67 341.92 735.67
  Q 340.32 736.97 333.93 740.60
  Q 333.46 740.87 333.73 741.34
  L 365.91 796.75
  Q 366.29 797.40 365.53 797.40
  L 326.29 797.42
  A 1.36 1.35 75.2 0 1 325.11 796.73
  L 296.71 746.31
  A 1.05 1.04 -14.7 0 0 295.80 745.78
  L 278.79 745.78
  Q 278.12 745.78 278.12 746.46
  Z
  M 277.99 681.02
  L 278.19 718.30
  A 0.56 0.56 0.0 0 0 278.75 718.86
  L 306.50 718.71
  A 18.67 17.87 -0.3 0 0 325.08 700.75
  L 325.06 698.09
  A 18.67 17.87 -0.3 0 0 306.30 680.32
  L 278.55 680.46
  A 0.56 0.56 0.0 0 0 277.99 681.02
  Z"
/>
<path fill="#d70623" d="
  M 747.51 749.01
  L 747.51 796.70
  A 0.71 0.71 0.0 0 1 746.80 797.41
  L 712.21 797.43
  Q 711.75 797.43 711.75 796.96
  L 711.75 651.03
  Q 711.75 650.59 712.19 650.59
  Q 743.81 650.54 775.24 650.58
  C 805.06 650.61 825.77 674.38 823.29 703.98
  C 821.62 723.99 807.29 742.20 787.41 747.04
  Q 781.86 748.39 768.98 748.42
  Q 758.53 748.45 748.06 748.47
  Q 747.51 748.47 747.51 749.01
  Z
  M 746.98 682.57
  L 746.80 716.22
  A 0.73 0.73 0.0 0 0 747.53 716.96
  L 769.63 717.07
  A 17.23 17.18 0.3 0 0 786.95 699.98
  L 786.95 699.22
  A 17.23 17.18 0.3 0 0 769.81 681.95
  L 747.71 681.84
  A 0.73 0.73 0.0 0 0 746.98 682.57
  Z"
/>
<path fill="#d70623" d="
  M 890.02 746.38
  L 890.02 797.07
  Q 890.02 797.42 889.67 797.42
  L 856.48 797.43
  Q 856.02 797.43 856.02 796.98
  L 856.02 651.03
  Q 856.02 650.60 856.46 650.60
  Q 908.52 650.50 922.99 650.57
  C 951.91 650.70 975.71 673.38 971.80 703.25
  Q 968.46 728.82 945.73 740.64
  Q 945.33 740.85 945.56 741.24
  L 977.96 797.03
  A 0.24 0.24 0.0 0 1 977.75 797.40
  L 938.49 797.43
  Q 937.39 797.43 936.84 796.47
  L 908.61 746.32
  Q 908.31 745.78 907.69 745.78
  L 890.62 745.78
  Q 890.02 745.78 890.02 746.38
  Z
  M 890.08 680.62
  L 889.94 718.36
  A 0.33 0.33 0.0 0 0 890.27 718.69
  L 918.21 718.79
  A 18.67 17.90 0.2 0 0 936.95 700.95
  L 936.95 698.35
  A 18.67 17.90 0.2 0 0 918.35 680.39
  L 890.41 680.29
  A 0.33 0.33 0.0 0 0 890.08 680.62
  Z"
/>
<rect fill="#d70623" x="1008.07" y="650.57" width="102.44" height="30.60" rx="0.39"/>
<rect fill="#d70623" x="1008.09" y="708.26" width="102.64" height="28.96" rx="0.65"/>
<path fill="#d70623" d="
  M 575.61 735.38
  L 550.99 735.42
  A 0.49 0.49 0.0 0 1 550.56 735.17
  L 543.76 723.24
  A 0.49 0.49 0.0 0 1 543.76 722.76
  L 550.18 711.59
  A 0.49 0.49 0.0 0 1 550.60 711.34
  L 577.24 711.39
  A 0.49 0.49 0.0 0 1 577.64 712.16
  L 569.02 724.50
  A 0.49 0.49 0.0 0 0 569.03 725.07
  L 576.00 734.60
  A 0.49 0.49 0.0 0 1 575.61 735.38
  Z"
/>
<path fill="#d70623" d="
  M 538.83 760.52
  L 497.48 821.01
  Q 497.31 821.25 497.02 821.25
  L 444.01 821.26
  A 0.73 0.73 0.0 0 1 443.41 820.11
  Q 469.19 783.44 494.82 746.83
  Q 496.88 743.89 500.49 743.91
  Q 512.13 743.98 523.75 744.02
  C 524.92 744.02 526.10 744.89 527.02 745.83
  Q 533.53 752.56 542.36 755.27
  C 546.93 756.67 554.93 756.88 559.67 755.43
  Q 572.18 751.60 579.77 740.18
  Q 579.93 739.94 580.10 740.18
  L 638.41 820.53
  A 0.46 0.45 -17.6 0 1 638.03 821.25
  L 581.58 821.26
  Q 581.15 821.26 580.91 820.90
  C 580.30 820.00 579.89 818.82 579.36 818.05
  Q 559.51 789.33 539.61 760.52
  A 0.47 0.47 0.0 0 0 538.83 760.52
  Z"
/>
<rect fill="#d70623" x="1008.07" y="766.83" width="104.66" height="30.58" rx="0.56"/>
</svg>
