<svg xmlns="http://www.w3.org/2000/svg" xmlns:xlink="http://www.w3.org/1999/xlink" version="1.1" id="Layer_1" x="0px" y="0px" width="100%" viewBox="0 0 1024 1024" enable-background="new 0 0 1024 1024" xml:space="preserve">
<path fill="#003b70" opacity="1.000000" stroke="none" d=" M189.644928,583.184998   C175.215225,543.659607 165.177185,503.420288 158.515305,462.283142   C153.786392,433.081909 150.727295,403.732544 148.484375,374.238220   C146.117249,343.110809 146.607773,311.989716 146.965027,280.855408   C147.131042,266.387451 148.287399,251.933563 148.674805,237.464722   C149.187973,218.298935 157.174164,209.820267 176.222824,208.710205   C247.829514,204.537323 317.600250,191.215240 385.166077,166.848663   C423.678314,152.959839 460.590973,135.757004 495.360779,114.063141   C498.185394,112.300804 501.049438,110.573685 504.021057,109.080704   C510.369049,105.891418 516.608093,105.889633 523.151306,109.142761   C543.596313,119.307518 562.760498,131.847260 583.482483,141.482880   C635.143677,165.505096 688.687500,183.780045 744.692505,194.677277   C768.346680,199.279800 792.140198,202.892380 816.084167,205.467270   C826.490906,206.586380 836.970764,207.096573 847.430725,207.612442   C851.281189,207.802353 855.091980,208.176285 858.808777,209.006592   C869.548828,211.405930 876.797729,219.972626 877.261902,231.041260   C878.803345,267.803406 881.150391,304.550415 880.267639,341.373322   C879.701599,364.982300 877.694946,388.496399 875.475220,412.010284   C871.578552,453.288971 863.616882,493.770874 852.955078,533.776428   C841.962891,575.021851 825.180298,613.923279 805.338257,651.592529   C790.611938,679.549744 773.078003,705.624146 753.183044,730.161865   C728.778381,760.261658 702.323120,788.400879 672.979370,813.715515   C653.043518,830.914062 632.182007,846.983459 610.764954,862.313721   C585.021667,880.740784 558.996582,898.744385 531.714417,914.856445   C530.997070,915.280090 530.269226,915.690918 529.581848,916.159851   C519.518982,923.024841 510.340790,923.161560 499.231903,916.435608   C447.672638,885.219116 398.415222,850.921814 352.490967,811.827454   C312.134094,777.472595 277.515625,738.043030 246.944443,694.871033   C231.359787,672.862671 219.662506,648.758179 207.673492,624.765991   C200.962662,611.336426 195.130051,597.553955 189.644928,583.184998  M769.639343,288.097870   C782.054749,279.691864 794.486450,271.309723 806.863037,262.846954   C808.264404,261.888733 810.576660,261.147003 809.894714,258.825134   C809.296265,256.787384 807.135437,257.315125 805.567688,257.175720   C776.712402,254.609360 748.256226,249.513168 720.082458,242.984879   C649.140991,226.546631 581.305908,201.945892 518.299744,164.944839   C515.700500,163.418381 513.619385,163.353638 510.925049,164.844238   C502.039062,169.760254 493.077728,174.555618 483.998596,179.104462   C426.149323,208.088272 365.861053,230.307159 302.520447,243.877777   C280.427826,248.611099 258.220825,252.734833 235.633682,254.575745   C231.053879,254.949020 226.163406,254.350296 221.526718,256.353302   C223.445755,259.502655 225.786148,261.634247 228.233261,263.628143   C237.919434,271.520386 247.469040,279.594574 257.392578,287.178284   C281.505707,305.605927 306.289032,323.027313 333.552765,336.640625   C340.805634,340.262177 348.253632,340.683868 355.907776,338.953552   C377.847412,333.993896 399.302917,327.307312 420.388824,319.572601   C438.117889,313.069244 455.890533,308.063385 474.963623,311.734894   C482.015625,313.092377 489.076935,314.609772 495.453827,318.456207   C493.490173,322.416565 490.231812,323.598145 487.407074,325.212830   C464.992462,338.025879 442.676880,351.022430 420.039398,363.430908   C408.873810,369.551147 401.010956,378.249634 395.358276,389.395996   C385.868439,408.108673 376.414337,426.831238 365.225494,444.637604   C359.528748,453.703613 354.871399,463.293549 356.276276,474.663757   C357.892242,487.742401 362.502502,498.432434 375.400269,504.609619   C391.957886,512.539612 408.005615,511.003632 424.038696,503.770782   C448.302460,492.824768 463.897278,473.192108 476.418823,450.647003   C477.992096,447.814392 479.992035,446.066742 482.876221,444.831116   C496.038727,439.191986 509.498169,434.101471 522.165283,427.498474   C531.486328,422.639618 538.522156,423.445892 547.210510,429.284088   C576.968750,449.280426 605.625366,470.734497 634.085754,492.486603   C663.863831,515.245911 693.832336,537.761414 722.916931,561.410645   C733.297363,569.851135 735.882141,580.895264 731.331604,593.214294   C726.339722,606.727905 702.549194,616.600403 690.316223,605.177063   C681.835693,597.257874 671.989197,590.796997 662.719971,583.727844   C637.553711,564.534912 612.381409,545.350037 587.180786,526.202271   C583.367432,523.304871 577.745972,523.863464 574.947388,527.199646   C572.444336,530.183533 573.411865,533.513062 578.154419,537.126343   C591.140869,547.020630 604.203857,556.814514 617.217102,566.673828   C637.136108,581.765076 657.080200,596.823669 676.932617,612.002075   C688.684326,620.986877 691.736084,629.783630 688.235168,642.370178   C683.292175,660.141785 657.542297,667.090271 646.802063,656.711548   C640.974060,651.079773 633.878906,646.766663 627.401917,641.797913   C604.007996,623.851440 580.639404,605.871765 557.245911,587.924622   C553.774353,585.261292 550.150757,582.896423 545.441406,583.404236   C543.406311,583.623718 541.303772,583.948181 540.445557,586.066040   C539.671143,587.977234 540.855896,589.578369 541.973633,591.077942   C544.932556,595.047852 549.288208,597.312683 553.080139,600.277222   C577.492554,619.362732 601.806824,638.574097 626.281250,657.579590   C631.895935,661.939697 635.133972,667.064087 635.695679,674.313110   C636.468323,684.284180 631.307373,696.075378 623.319763,700.529419   C613.062439,706.249084 603.176392,705.487549 593.936462,698.286194   C583.029602,689.785583 572.268372,681.098328 561.402466,672.544739   C550.539429,663.993530 539.561768,655.586548 528.767334,646.950134   C524.953918,643.899170 521.174805,644.007996 517.191833,646.048584   C514.116882,647.623962 514.031616,650.080750 516.802612,652.140137   C534.858826,665.559875 552.027771,680.092163 569.460266,694.289612   C577.463623,700.807800 579.074097,709.870361 576.544495,719.226624   C572.238464,735.152893 556.809265,741.517517 542.216736,733.828979   C534.958435,730.004761 528.898987,724.430115 522.381775,719.524780   C518.540161,716.633179 518.015198,713.932312 521.169067,709.971069   C527.232361,702.355591 529.950256,693.895203 527.602112,683.891724   C524.052002,668.768311 515.560486,658.123596 501.021027,652.591492   C493.734039,649.818909 493.363647,649.656677 493.855713,641.882629   C494.363098,633.866516 493.182434,626.201233 488.740753,619.388855   C479.891357,605.816101 467.565125,598.582336 451.042175,599.189270   C443.019592,599.483948 442.334290,598.951660 440.858826,591.130798   C440.016571,586.666626 438.713348,582.410278 436.379486,578.509521   C426.765411,562.441223 410.178497,555.237671 391.129791,558.829773   C384.397614,560.099304 383.295990,559.565186 381.415222,553.043335   C379.764771,547.320251 377.112152,542.279053 372.973846,537.961182   C356.006683,520.257324 330.890076,519.062073 312.431519,535.303650   C307.184662,539.920288 302.417114,545.077637 297.257965,549.799316   C292.130890,554.491577 291.529694,554.319214 286.611969,549.634277   C261.641052,525.845398 236.641052,502.087006 211.636429,478.333527   C210.954117,477.685394 210.371613,476.697968 208.650360,477.124847   C209.878922,482.225769 211.200256,487.301544 212.318924,492.421570   C221.193085,533.038025 233.344025,572.601868 252.017654,609.840637   C271.901215,649.492249 296.437286,686.121155 326.413727,718.931580   C375.906830,773.103699 432.956909,818.017090 495.798462,855.598877   C516.803589,868.160706 509.970184,867.393677 530.641724,856.365173   C569.489990,835.639160 603.960083,808.493469 637.484924,780.221069   C660.174561,761.086243 681.149170,740.131714 700.841064,717.868896   C726.102783,689.309021 749.026489,659.076233 766.631714,625.190430   C788.457336,583.181274 803.592529,538.642639 814.497375,492.642761   C815.135925,489.949249 816.746033,487.037933 815.060669,484.166962   C812.906372,483.826019 811.694458,485.147491 810.403687,486.110016   C805.329590,489.893616 800.303101,493.741638 795.282837,497.596741   C775.314758,512.930237 757.674683,530.986267 737.954651,546.616882   C731.987305,551.346802 731.313538,551.669617 725.862366,546.465271   C717.658142,538.632446 709.037415,531.282410 700.339905,524.028809   C669.751892,498.518738 637.762512,474.799194 606.100769,450.665649   C586.494690,435.721252 566.641174,421.121368 545.817505,407.860443   C540.050171,404.187683 535.196106,403.556152 528.793091,406.473206   C510.921021,414.615295 492.762299,422.137024 474.621582,429.674591   C469.754150,431.697052 466.165558,434.777283 463.446838,439.171844   C459.415497,445.688141 455.469513,452.271149 451.131012,458.580841   C439.401367,475.639740 424.100067,487.948059 403.583405,492.732056   C387.963623,496.374237 375.460022,488.349335 373.008057,473.589294   C371.960236,467.281708 374.053253,461.739410 376.998840,456.422058   C387.494690,437.475037 397.695679,418.384277 406.690002,398.660309   C410.797882,389.651947 417.186401,382.741943 425.920959,377.671448   C458.624237,358.686890 491.379547,339.798706 524.279053,321.153595   C547.888062,307.773651 571.776245,306.621094 596.593201,317.205902   C617.724182,326.218536 638.847656,335.292175 660.846924,342.061218   C666.545288,343.814575 672.184631,345.270599 678.449158,344.147766   C687.042725,342.607452 694.581726,339.014008 701.778992,334.431244   C724.690979,319.842377 746.647644,303.851013 769.639343,288.097870  z"/>
<path fill="#003b70" opacity="1.000000" stroke="none" d=" M404.513062,650.512207   C414.521118,640.245056 423.549896,629.503113 433.941833,620.116272   C443.779449,611.230225 456.451660,610.511292 467.529175,617.783752   C476.986572,623.992493 481.804749,637.520325 478.414917,648.128662   C477.107941,652.218811 474.590698,655.501343 471.741821,658.555359   C458.564209,672.681946 445.356995,686.780945 432.137665,700.868469   C423.555664,710.014099 413.218231,713.795776 400.967224,710.084534   C383.161469,704.690552 376.736298,682.065918 388.873840,667.828674   C393.841766,662.001282 399.132782,656.449280 404.513062,650.512207  z"/>
<path fill="#003b70" opacity="1.000000" stroke="none" d=" M418.575897,618.564575   C405.171722,632.712280 392.145660,646.733093 378.797852,660.440552   C366.225311,673.351929 347.840881,673.572266 337.314453,661.312866   C328.649628,651.221497 328.937469,634.774170 338.794037,623.781555   C352.785919,608.176880 367.196930,592.939270 382.273438,578.360718   C385.442688,575.296082 389.431885,573.520142 393.760742,572.699829   C405.667145,570.443970 417.649841,575.494812 422.846710,585.339966   C429.408997,597.771790 429.866364,607.778809 418.575897,618.564575  z"/>
<path fill="#003b70" opacity="1.000000" stroke="none" d=" M335.985474,610.976074   C329.281281,618.602295 322.114349,624.089355 311.383270,623.469910   C299.179749,622.765564 287.714691,612.365540 286.684296,600.132385   C286.032196,592.390137 287.364624,585.382751 292.883453,579.340149   C302.303894,569.025635 311.233826,558.260559 320.724457,548.013306   C330.261353,537.716125 343.745422,535.713074 355.216949,542.302063   C368.805725,550.107178 372.493286,567.966431 362.598511,580.110657   C354.095093,590.547241 345.041443,600.535461 335.985474,610.976074  z"/>
<path fill="#003b70" opacity="1.000000" stroke="none" d=" M468.089508,740.353760   C448.953033,742.623901 435.203003,728.033630 438.700958,709.661011   C439.306793,706.478943 440.595184,703.624756 442.701599,701.184387   C451.296509,691.226746 459.847870,681.191711 469.475891,672.228882   C481.240479,661.277222 496.074371,661.898560 506.676392,673.229614   C514.502625,681.593994 515.855774,693.334656 509.126770,702.572327   C500.787140,714.021118 490.762177,724.082031 480.875244,734.197449   C477.573486,737.575500 473.172913,739.380920 468.089508,740.353760  z"/>
</svg>